<svg width="128" height="128" viewBox="0 0 128 128" fill="none" xmlns="http://www.w3.org/2000/svg">
<path d="M70.4164 30.8718C70.5874 30.9283 70.7584 30.9848 70.9346 31.0431C73.0316 31.768 75.0418 32.7988 76.7736 34.1915C76.9572 34.3335 76.9572 34.3335 77.1445 34.4784C79.5882 36.4108 81.4523 38.7441 82.8545 41.5226C82.9029 41.6177 82.9513 41.7128 83.0012 41.8108C84.4516 44.7106 84.9583 47.6558 84.962 50.8679C84.9622 50.9724 84.9625 51.0769 84.9627 51.1845C84.9629 52.7051 84.8937 54.152 84.5129 55.6314C84.4817 55.7626 84.4817 55.7626 84.4499 55.8965C83.169 61.2508 79.7788 65.8929 75.1243 68.8007C71.869 70.7801 68.2202 71.8411 64.4114 71.8407C64.1236 71.841 63.8359 71.8435 63.5482 71.8461C61.7771 71.8538 60.0555 71.681 58.3497 71.1753C58.2277 71.1395 58.1056 71.1037 57.9799 71.0669C52.5064 69.4002 48.1351 65.5873 45.3896 60.6148C45.0798 60.0293 44.8156 59.4285 44.5729 58.8128C44.5112 58.6574 44.5112 58.6574 44.4483 58.4989C42.507 53.479 42.4916 47.7422 44.6398 42.7804C47.1074 37.3381 51.2453 33.4562 56.7345 31.1484C57.9456 30.6954 59.1986 30.4249 60.4659 30.1802C60.5963 30.1515 60.7267 30.1228 60.8611 30.0932C64.0023 29.4856 67.4005 29.8668 70.4164 30.8718Z" fill="white"/>
<path d="M64.4219 0.000132598C64.6204 0.000189015 64.6204 0.000189015 64.8229 0.00024657C66.9307 0.00298856 69.0105 0.0725777 71.1073 0.302711C71.2909 0.320531 71.2909 0.320531 71.4781 0.33871C75.1614 0.698488 78.9183 1.51979 82.4398 2.65418C82.5942 2.70299 82.7486 2.7518 82.9076 2.80209C91.2653 5.45599 99.0255 9.6159 105.657 15.3798C105.759 15.4675 105.861 15.5552 105.965 15.6456C106.233 15.8781 106.498 16.1129 106.763 16.348C106.861 16.4344 106.959 16.5207 107.06 16.6097C107.92 17.3743 108.743 18.1701 109.554 18.9853C109.761 19.193 109.969 19.4 110.176 19.607C110.91 20.341 111.621 21.0876 112.291 21.8809C112.417 22.027 112.543 22.1731 112.67 22.3191C113.327 23.0908 113.97 23.8697 114.589 24.6733C114.648 24.7497 114.706 24.8261 114.767 24.9049C114.977 25.1809 115.176 25.4427 115.332 25.7539C114.729 25.923 114.275 25.936 113.673 25.7539C112.991 25.1906 112.489 24.4242 111.97 23.7146C111.641 23.2713 111.288 22.8517 110.926 22.4342C110.86 22.3569 110.794 22.2797 110.725 22.2001C108.049 19.1112 105.07 16.294 101.788 13.8582C101.695 13.7889 101.601 13.7195 101.505 13.6481C95.5396 9.2345 88.9577 5.98783 81.887 3.76075C81.7737 3.72496 81.6605 3.68916 81.5438 3.65228C78.7987 2.79663 75.9741 2.2418 73.1371 1.78967C73.0091 1.76879 72.8811 1.7479 72.7492 1.72638C70.0064 1.31188 67.2544 1.22567 64.4848 1.2349C63.954 1.23639 63.4233 1.2349 62.8925 1.23314C61.0543 1.23211 59.2476 1.28633 57.4229 1.51389C57.0457 1.56034 56.6677 1.5979 56.2896 1.63622C54.2975 1.85929 52.3575 2.2437 50.4045 2.69227C50.0195 2.7796 49.634 2.86189 49.2473 2.94163C41.4402 4.60299 33.6647 8.39995 27.2977 13.1666C27.2061 13.2349 27.1144 13.3031 27.02 13.3734C25.638 14.4055 24.3053 15.4816 23.0135 16.6247C22.8966 16.7277 22.7797 16.8308 22.6593 16.937C22.3141 17.245 21.9724 17.5567 21.6315 17.8696C21.5566 17.9376 21.4816 18.0056 21.4045 18.0756C19.3731 19.9219 17.4183 21.8807 15.8254 24.1259C14.6897 25.6826 14.6897 25.6826 13.9613 25.8949C13.5462 25.8925 13.1877 25.8581 12.7866 25.7539C13.8892 24.2627 15.0128 22.8069 16.2827 21.454C16.5583 21.1567 16.8233 20.8569 17.0865 20.549C17.6914 19.854 18.3417 19.2049 18.9939 18.5549C19.204 18.3454 19.4132 18.1352 19.6224 17.925C20.3605 17.1857 21.1122 16.472 21.9079 15.7947C22.0528 15.6668 22.1975 15.5385 22.3419 15.41C26.3732 11.8648 31.0289 8.84584 35.8649 6.523C36.1533 6.38365 36.44 6.24105 36.7267 6.09817C40.5571 4.21052 44.659 2.75973 48.8106 1.76346C49.03 1.71076 49.2492 1.65686 49.4681 1.60191C52.0396 0.960474 54.661 0.654909 57.2877 0.336876C57.5617 0.30295 57.8354 0.26625 58.109 0.229532C58.716 0.1538 59.3228 0.117495 59.9336 0.0882046C60.0529 0.0824174 60.1723 0.0766301 60.2953 0.0706675C61.6706 0.00890733 63.0454 -0.00135556 64.4219 0.000132598Z" fill="#7E1D02"/>
<path d="M12.9248 102.246C14.2091 102.086 14.2091 102.086 14.7251 102.435C14.9755 102.711 15.1903 102.995 15.4038 103.301C15.5693 103.519 15.7351 103.737 15.901 103.954C16.0221 104.118 16.0221 104.118 16.1456 104.285C16.4772 104.727 16.8306 105.148 17.1918 105.566C17.258 105.643 17.3242 105.72 17.3924 105.799C18.9333 107.578 20.5714 109.25 22.3225 110.822C22.4063 110.897 22.4901 110.973 22.5765 111.051C23.8232 112.168 25.1217 113.205 26.4629 114.207C26.7255 114.404 26.9866 114.602 27.2475 114.801C34.5006 120.288 42.9447 123.666 51.7592 125.622C51.8994 125.654 52.0397 125.686 52.1842 125.719C53.0059 125.905 53.8286 126.05 54.6614 126.175C54.8917 126.213 54.8917 126.213 55.1266 126.251C60.6854 127.116 66.9314 127.205 72.4893 126.314C72.6401 126.29 72.6401 126.29 72.7939 126.265C78.478 125.346 84.1005 123.879 89.3498 121.473C89.56 121.376 89.56 121.376 89.7745 121.278C94.5605 119.068 99.0907 116.389 103.17 113.035C103.245 112.973 103.321 112.911 103.399 112.847C104.364 112.049 105.3 111.222 106.217 110.369C106.482 110.123 106.749 109.881 107.02 109.641C108.579 108.246 110.001 106.709 111.367 105.125C111.433 105.048 111.5 104.971 111.568 104.892C111.915 104.485 112.236 104.071 112.539 103.632C113.474 102.302 113.474 102.302 114.106 102.125C114.489 102.125 114.822 102.155 115.193 102.246C114.489 103.83 113.017 105.243 111.877 106.534C111.784 106.638 111.784 106.638 111.69 106.745C110.721 107.837 109.693 108.871 108.663 109.905C108.566 110.004 108.566 110.004 108.466 110.104C107.692 110.882 106.907 111.633 106.072 112.343C105.939 112.46 105.806 112.577 105.668 112.698C102.081 115.793 98.0878 118.418 93.9104 120.643C93.7912 120.706 93.6721 120.77 93.5493 120.835C89.6887 122.877 85.6421 124.358 81.4724 125.622C81.3304 125.666 81.1884 125.709 81.0421 125.754C77.8344 126.73 74.4361 127.32 71.1073 127.697C70.9228 127.718 70.9228 127.718 70.7346 127.74C68.632 127.971 66.5346 127.999 64.4218 128C64.2305 128 64.2305 128 64.0354 128C61.4813 128 58.9497 127.908 56.4148 127.585C56.3177 127.572 56.2206 127.56 56.1206 127.548C49.1407 126.673 42.4774 124.676 36.1425 121.611C36.0334 121.558 35.9242 121.506 35.8118 121.452C30.5687 118.925 25.7234 115.611 21.4258 111.688C21.2352 111.516 21.0438 111.345 20.8485 111.179C20.0572 110.501 19.3192 109.773 18.5847 109.035C18.3755 108.825 18.1654 108.616 17.9554 108.406C17.2169 107.668 16.5013 106.917 15.827 106.119C15.7009 105.973 15.5748 105.827 15.4486 105.681C14.7903 104.908 14.1438 104.128 13.5208 103.326C13.4608 103.25 13.4008 103.174 13.339 103.095C12.9248 102.556 12.9248 102.556 12.9248 102.246Z" fill="#7E1D02"/>
<path d="M8.25196 85.8477C8.33462 85.9128 8.41728 85.9779 8.50245 86.0449C8.63926 86.1419 8.77608 86.2389 8.91705 86.3388C9.39952 86.195 9.82936 85.9518 10.2731 85.7164C11.8423 84.9335 13.4747 84.8824 15.1652 85.3668C16.274 85.7756 16.8916 86.3587 17.4725 87.3811C17.7588 88.0269 17.7793 88.6403 17.7798 89.3407C17.7801 89.4761 17.7801 89.4761 17.7805 89.6143C17.7811 89.9107 17.7807 90.2072 17.7802 90.5036C17.7803 90.7101 17.7805 90.9165 17.7806 91.123C17.7809 91.5546 17.7806 91.9862 17.7799 92.4178C17.7791 92.9721 17.7796 93.5264 17.7804 94.0807C17.7809 94.5064 17.7807 94.9322 17.7804 95.3579C17.7803 95.5624 17.7804 95.7669 17.7807 95.9714C17.7811 96.2562 17.7805 96.541 17.7798 96.8258C17.7797 96.988 17.7796 97.1503 17.7794 97.3174C17.7619 97.6812 17.7619 97.6812 17.6237 97.8195C17.3767 97.8405 17.1287 97.8502 16.8809 97.8541C16.7458 97.8577 16.6108 97.8613 16.4717 97.8649C16.1035 97.8195 16.1035 97.8195 15.8765 97.6613C15.6083 97.2943 15.6366 97.0227 15.6357 96.5707C15.6343 96.3989 15.6329 96.2272 15.6315 96.0502C15.6317 95.9585 15.6319 95.8667 15.6321 95.7722C15.6327 95.4843 15.6308 95.1965 15.6282 94.9086C15.6231 94.2969 15.6212 93.6851 15.6198 93.0734C15.6181 92.3657 15.6151 91.6581 15.6087 90.9505C15.6069 90.6677 15.6074 90.3851 15.6081 90.1023C15.6067 89.9293 15.6053 89.7562 15.6039 89.5779C15.6036 89.4262 15.6033 89.2745 15.603 89.1182C15.5429 88.6267 15.3702 88.2929 15.1361 87.8604C15.1361 87.7691 15.1361 87.6778 15.1361 87.5837C13.9978 86.993 12.8458 86.773 11.579 87.1401C11.2767 87.2729 10.9973 87.415 10.7137 87.5837C10.5957 87.6362 10.4777 87.6887 10.3561 87.7428C9.98008 87.9731 9.98008 87.9731 9.93956 88.4162C9.94109 88.5873 9.94263 88.7584 9.94421 88.9346C9.94411 89.0291 9.944 89.1236 9.9439 89.221C9.94438 89.5332 9.94976 89.8451 9.95517 90.1573C9.95646 90.3738 9.95744 90.5903 9.95813 90.8068C9.96077 91.3764 9.96756 91.946 9.97521 92.5156C9.98228 93.097 9.98543 93.6783 9.98891 94.2597C9.99632 95.4002 10.0081 96.5407 10.0227 97.6812C9.64115 97.8085 9.38228 97.8462 8.98615 97.8541C8.87926 97.8577 8.77237 97.8613 8.66224 97.8649C8.2772 97.8063 8.18256 97.7149 7.94964 97.4046C7.89733 97.0356 7.89733 97.0356 7.89647 96.5856C7.89507 96.4171 7.89367 96.2485 7.89223 96.0749C7.89265 95.8925 7.89307 95.71 7.8935 95.5221C7.89222 95.3327 7.89071 95.1434 7.88896 94.954C7.88388 94.3531 7.88198 93.7522 7.88054 93.1512C7.87887 92.4564 7.87587 91.7618 7.86949 91.067C7.86762 90.7898 7.86821 90.5125 7.86885 90.2352C7.86153 89.3436 7.85374 88.6382 7.39684 87.8604C6.71287 87.1938 6.05081 86.9882 5.10789 86.9699C4.95379 86.9644 4.79969 86.9589 4.64092 86.9532C3.87049 87.035 3.87049 87.035 2.42161 87.7221C2.37601 91.0086 2.3304 94.2951 2.28341 97.6812C1.90766 97.8066 1.64583 97.8503 1.25555 97.8628C1.15026 97.8679 1.04497 97.8731 0.936497 97.8784C0.49175 97.7944 0.350295 97.6202 0.0722023 97.2663C0.00293535 96.8315 0.00293535 96.8315 0.00286576 96.3129C0.00211907 96.2181 0.00137237 96.1234 0.000603047 96.0258C-0.00112242 95.7132 0.00115617 95.4008 0.00364179 95.0882C0.00362037 94.8705 0.00341454 94.6528 0.00303236 94.435C0.00284109 93.9789 0.00457626 93.5227 0.00772438 93.0666C0.011644 92.4827 0.0112696 91.8989 0.00950841 91.315C0.00854577 90.8654 0.00962469 90.4158 0.0113404 89.9661C0.0119634 89.7509 0.0120117 89.5357 0.0114696 89.3204C0.011066 89.0191 0.0133539 88.718 0.0163619 88.4167C0.0171086 88.2454 0.0178553 88.0742 0.0186246 87.8977C0.106069 87.1595 0.461979 86.6942 1.04015 86.2367C1.64219 85.8558 2.30783 85.614 2.97442 85.3706C3.06688 85.336 3.15934 85.3014 3.2546 85.2658C4.81137 84.7816 6.87985 84.9379 8.25196 85.8477Z" fill="#7E1D02"/>
<path d="M89.6779 86.0276C89.8491 86.1726 90.0163 86.3226 90.1789 86.4771C90.2639 86.5567 90.3489 86.6362 90.4364 86.7181C91.5569 87.8756 91.9113 89.1783 91.9291 90.7608C91.8373 91.1801 91.8373 91.1801 91.5771 91.4666C90.9705 91.8422 90.3906 91.9022 89.6909 91.9943C89.4779 92.0249 89.4779 92.0249 89.2606 92.0561C88.8069 92.1206 88.3528 92.182 87.8986 92.2434C87.5973 92.2862 87.2961 92.3291 86.9949 92.3723C85.5715 92.5736 84.1528 92.7657 82.7161 92.8399C82.7876 93.021 82.7876 93.021 82.8606 93.2056C82.9744 93.4935 83.0882 93.7813 83.2019 94.0692C83.7084 95.1323 84.4731 95.6607 85.5492 96.0646C87.2222 96.4001 88.6414 96.1843 90.1789 95.468C90.4087 95.3745 90.6389 95.2819 90.8699 95.1914C91.0772 95.3384 91.0772 95.3384 91.2845 95.6064C91.3707 96.1885 91.3641 96.4641 91.0168 96.9464C89.8918 97.7966 88.5778 98.1499 87.1817 98.1394C87.0724 98.1386 86.9631 98.1378 86.8505 98.137C85.1059 98.1011 83.4809 97.6046 82.1806 96.3931C80.859 94.9441 80.3918 93.0689 80.4709 91.1498C80.5828 89.4291 81.0499 87.7554 82.3447 86.5376C84.4177 84.8925 87.4149 84.4272 89.6779 86.0276Z" fill="#7E1D02"/>
<path d="M63.0915 86.2005C64.141 87.1055 64.9299 88.3798 65.0641 89.7747C65.0688 89.9161 65.0734 90.0575 65.0782 90.2032C65.0849 90.3442 65.0917 90.4853 65.0987 90.6306C64.9992 91.196 64.7731 91.3702 64.3353 91.7334C63.8848 91.8688 63.8848 91.8688 63.3712 91.9376C63.2779 91.9509 63.1845 91.9642 63.0884 91.9778C62.7845 92.0203 62.4804 92.0584 62.176 92.0965C61.9659 92.1249 61.7558 92.1534 61.5458 92.1822C59.6698 92.4356 57.7883 92.6494 55.9051 92.84C56.0134 93.1069 56.1224 93.3736 56.2317 93.6402C56.2923 93.7887 56.353 93.9373 56.4154 94.0903C56.8854 95.1556 57.6222 95.5756 58.6691 96.0214C60.0248 96.4737 61.6543 96.2528 62.9139 95.6464C63.1637 95.5054 63.4057 95.3506 63.6443 95.1914C63.9294 95.2174 63.9294 95.2174 64.1971 95.3298C64.5252 95.8222 64.5758 95.9949 64.4735 96.5747C63.7702 97.4913 62.5409 97.9279 61.4331 98.0962C59.1072 98.2037 57.0796 97.9193 55.2832 96.298C53.8471 94.8097 53.6397 92.932 53.6426 90.9687C53.6834 89.1503 54.3429 87.7067 55.646 86.4426C57.8364 84.5778 60.7594 84.7334 63.0915 86.2005Z" fill="#7E1D02"/>
<path d="M63.5063 55.0781C63.5519 55.0781 63.5975 55.0781 63.6445 55.0781C63.6445 56.0823 63.6445 57.0866 63.6445 58.1212C63.9182 58.1212 64.1918 58.1212 64.4737 58.1212C64.4737 57.117 64.4737 56.1128 64.4737 55.0781C64.6106 55.2607 64.7474 55.4433 64.8883 55.6314C65.1505 55.7157 65.1505 55.7157 65.4429 55.7069C65.555 55.7097 65.6672 55.7124 65.7828 55.7152C65.9001 55.7154 66.0173 55.7155 66.1381 55.7157C66.2463 55.7179 66.3546 55.72 66.4661 55.7223C66.8701 55.7295 67.2742 55.7321 67.6783 55.7352C68.5818 55.7466 69.4854 55.758 70.4164 55.7697C70.4164 57.7782 70.4164 59.7866 70.4164 61.8559C68.4553 61.8559 66.4942 61.8559 64.4737 61.8559C64.4737 60.9886 64.4737 60.1213 64.4737 59.2278C64.2001 59.2278 63.9265 59.2278 63.6445 59.2278C63.6445 60.0951 63.6445 60.9623 63.6445 61.8559C61.6835 61.8559 59.7224 61.8559 57.7019 61.8559C57.7019 59.8475 57.7019 57.839 57.7019 55.7697C59.5262 55.7241 61.3504 55.6784 63.2299 55.6314C63.3211 55.4488 63.4124 55.2662 63.5063 55.0781Z" fill="#7E1D02"/>
<path d="M104.5 86.5117C105.217 87.3426 105.536 88.2171 105.537 89.3093C105.538 89.4446 105.538 89.4446 105.538 89.5827C105.539 89.8806 105.538 90.1786 105.538 90.4765C105.538 90.6834 105.538 90.8903 105.538 91.0971C105.538 91.5304 105.538 91.9636 105.537 92.3968C105.537 92.9533 105.537 93.5098 105.538 94.0663C105.538 94.4932 105.538 94.9201 105.538 95.3471C105.538 95.5524 105.538 95.7576 105.538 95.9629C105.539 96.249 105.538 96.5352 105.537 96.8213C105.537 96.9844 105.537 97.1475 105.537 97.3155C105.519 97.6812 105.519 97.6812 105.381 97.8195C105.134 97.8404 104.886 97.8502 104.638 97.8541C104.503 97.8576 104.368 97.8612 104.229 97.8649C103.861 97.8195 103.861 97.8195 103.634 97.6594C103.37 97.3001 103.395 97.0441 103.395 96.6004C103.394 96.4351 103.393 96.2698 103.392 96.0994C103.393 95.9205 103.394 95.7415 103.395 95.5572C103.394 95.3712 103.393 95.1853 103.391 94.9994C103.386 94.2104 103.386 93.4215 103.386 92.6325C103.386 92.1495 103.383 91.6665 103.379 91.1835C103.378 90.9117 103.379 90.6399 103.381 90.3681C103.372 89.21 103.273 88.3924 102.436 87.5318C101.709 87.0919 100.951 86.9853 100.112 86.9699C99.9494 86.9643 99.7866 86.9588 99.6188 86.9531C98.7991 87.0358 98.7991 87.0358 97.2273 87.722C97.1817 91.0085 97.1361 94.295 97.0891 97.6812C96.7167 97.8054 96.4484 97.8544 96.0612 97.8714C95.9559 97.8781 95.8506 97.8849 95.7422 97.8919C95.2676 97.7816 95.1394 97.5294 94.8779 97.1279C94.8086 96.6818 94.8086 96.6818 94.8085 96.1715C94.8078 96.0781 94.807 95.9846 94.8063 95.8884C94.8045 95.5811 94.8068 95.2739 94.8093 94.9666C94.8093 94.7522 94.8091 94.5377 94.8087 94.3233C94.8085 93.8745 94.8102 93.4257 94.8134 92.9769C94.8173 92.4024 94.8169 91.8281 94.8152 91.2537C94.8142 90.811 94.8153 90.3684 94.817 89.9258C94.8176 89.714 94.8177 89.5023 94.8171 89.2905C94.8167 88.9942 94.819 88.698 94.822 88.4017C94.8228 88.2333 94.8235 88.0649 94.8243 87.8915C94.914 87.1443 95.2801 86.6902 95.8631 86.2275C96.3724 85.9018 96.9366 85.7102 97.5037 85.5089C97.7132 85.4275 97.7132 85.4275 97.9269 85.3446C100.196 84.7164 102.687 84.9566 104.5 86.5117Z" fill="#7E1D02"/>
<path d="M37.3865 86.2004C38.119 86.8025 38.389 87.5171 38.6303 88.4136C38.6987 88.619 38.6987 88.619 38.7685 88.8286C38.7808 89.1149 38.7848 89.4017 38.7842 89.6883C38.7842 89.9541 38.7842 89.9541 38.7842 90.2253C38.7835 90.4187 38.7828 90.6121 38.782 90.8056C38.7818 91.0035 38.7816 91.2013 38.7814 91.3992C38.7809 91.9197 38.7795 92.4403 38.778 92.9608C38.7766 93.492 38.776 94.0233 38.7753 94.5546C38.7738 95.5968 38.7714 96.639 38.7685 97.6811C38.3928 97.8065 38.1309 97.8502 37.7407 97.8627C37.6354 97.8679 37.5301 97.873 37.4216 97.8784C36.9809 97.795 36.8359 97.6132 36.5573 97.2662C36.4902 96.8815 36.4902 96.8815 36.4928 96.4337C36.4921 96.1816 36.4921 96.1816 36.4913 95.9243C36.4933 95.7431 36.4953 95.5618 36.4974 95.3751C36.4971 95.1862 36.4964 94.9974 36.4954 94.8086C36.4924 94.1088 36.4948 93.4092 36.4984 92.7094C36.5014 92.1184 36.5016 91.5274 36.498 90.9364C36.4974 90.6606 36.5008 90.3847 36.5043 90.1089C36.4987 89.0963 36.4285 88.3529 35.7281 87.5837C34.7953 86.8755 33.5238 86.9218 32.4113 87.0304C31.9329 87.1314 31.4866 87.2745 31.0293 87.4453C30.7556 87.5366 30.482 87.6279 30.2001 87.722C30.2001 91.0085 30.2001 94.295 30.2001 97.6811C29.8623 97.8502 29.6182 97.8522 29.2413 97.8627C29.0599 97.8704 29.0599 97.8704 28.8748 97.8784C28.5417 97.8195 28.5417 97.8195 28.3172 97.6002C28.0596 97.1476 28.0725 96.8095 28.069 96.2896C28.0679 96.1924 28.0667 96.0951 28.0655 95.995C28.0623 95.6741 28.0621 95.3534 28.0623 95.0325C28.0613 94.8089 28.0602 94.5853 28.0591 94.3617C28.0572 93.8931 28.057 93.4245 28.0578 92.9559C28.0586 92.3565 28.0544 91.7572 28.0488 91.1578C28.0452 90.696 28.0449 90.2342 28.0454 89.7723C28.0451 89.5514 28.0438 89.3305 28.0413 89.1095C28.0383 88.7999 28.0396 88.4907 28.042 88.181C28.0418 88.0052 28.0415 87.8293 28.0412 87.6481C28.1551 87.0122 28.3656 86.7935 28.8181 86.3388C31.4367 84.724 34.7619 84.5553 37.3865 86.2004Z" fill="#7E1D02"/>
<path d="M127.001 86.0233C127.217 86.2005 127.217 86.2005 127.493 86.6154C127.431 87.508 127.431 87.508 127.079 87.8603C126.462 87.7937 125.929 87.5418 125.365 87.2984C124.361 86.9357 123.054 86.8218 122.027 87.1396C121.553 87.3667 121.291 87.5582 120.998 87.9987C120.952 88.4995 120.96 88.8658 121.136 89.3387C121.929 90.256 123.299 90.4416 124.422 90.713C125.894 91.0886 126.946 91.6576 127.789 92.941C128.102 93.7664 128.028 94.9857 127.818 95.83C127.328 96.9114 126.412 97.4468 125.341 97.8525C123.745 98.3533 121.731 98.2545 120.169 97.6812C119.6 97.3756 119.105 97.0316 118.648 96.5746C118.571 95.6021 118.571 95.6021 118.813 95.1827C119.174 94.9957 119.365 95.0858 119.754 95.1914C120.028 95.3229 120.299 95.4618 120.566 95.6064C121.192 95.9243 121.669 96.1351 122.38 96.1596C122.528 96.168 122.677 96.1764 122.83 96.185C123.853 96.2209 124.568 96.1969 125.42 95.6064C125.751 95.075 125.771 94.5577 125.697 93.9465C125.526 93.4442 125.41 93.1959 124.957 92.9145C124.104 92.5545 123.203 92.3543 122.307 92.1302C121.077 91.8042 119.763 91.3502 119.063 90.2118C118.645 89.3236 118.605 88.2938 118.903 87.3573C119.459 86.2524 120.414 85.6402 121.551 85.2322C123.363 84.7716 125.434 85.0055 127.001 86.0233Z" fill="#7E1D02"/>
<path d="M68.4814 85.2323C69.2129 85.7991 69.4274 86.4824 69.7149 87.3417C69.7635 87.4812 69.812 87.6207 69.8621 87.7644C70.017 88.2107 70.1692 88.6579 70.3212 89.1053C70.5215 89.6876 70.7228 90.2696 70.9242 90.8516C70.9733 90.9942 71.0223 91.1368 71.0729 91.2837C71.4569 92.3941 71.8672 93.4929 72.2954 94.5869C72.3391 94.6992 72.3828 94.8115 72.4278 94.9272C72.4664 95.0255 72.5051 95.1237 72.545 95.2249C72.6274 95.4681 72.6274 95.4681 72.6274 95.7447C72.7186 95.7447 72.8098 95.7447 72.9038 95.7447C72.9205 95.6244 72.9371 95.5042 72.9543 95.3802C73.0403 94.924 73.1684 94.5378 73.3395 94.107C73.4006 93.9506 73.4617 93.7942 73.5246 93.633C73.5905 93.4655 73.6565 93.2979 73.7244 93.1253C74.4399 91.2831 75.0609 89.4185 75.6549 87.534C75.7047 87.376 75.7546 87.2179 75.806 87.055C75.8933 86.7774 75.9798 86.4995 76.0652 86.2213C76.1553 85.9352 76.2558 85.6523 76.3588 85.3706C76.803 85.1483 77.2591 85.1686 77.7408 85.2323C78.095 85.4225 78.095 85.4225 78.2936 85.7856C78.3486 86.9607 77.8877 88.0655 77.4903 89.1485C77.4223 89.3368 77.3544 89.5251 77.2864 89.7134C74.6839 96.8678 74.6839 96.8678 73.733 97.8195C73.4429 97.8442 73.1517 97.8566 72.8606 97.8628C72.622 97.8705 72.622 97.8705 72.3785 97.8784C71.9364 97.8195 71.9364 97.8195 71.6368 97.6083C71.304 97.1587 71.064 96.6828 70.8308 96.177C70.7781 96.0639 70.7255 95.9509 70.6712 95.8344C69.5557 93.3946 68.606 90.8757 67.6954 88.3532C67.6079 88.1125 67.6079 88.1125 67.5186 87.8669C67.2552 87.125 67.0279 86.4335 66.9612 85.6472C67.4846 85.2774 67.8399 85.1253 68.4814 85.2323Z" fill="#7E1D02"/>
<path d="M110.564 81.7397C110.724 81.7343 110.724 81.7343 110.887 81.7289C111.273 81.7875 111.368 81.8779 111.6 82.1892C111.647 82.5664 111.647 82.5664 111.641 83.0164C111.639 83.1774 111.638 83.3383 111.636 83.5041C111.633 83.6721 111.63 83.8402 111.626 84.0133C111.624 84.183 111.622 84.3526 111.62 84.5274C111.615 84.9469 111.609 85.3662 111.6 85.7856C111.8 85.7845 111.8 85.7845 112.004 85.7834C112.497 85.7809 112.989 85.7793 113.482 85.778C113.695 85.7773 113.909 85.7763 114.123 85.7751C114.429 85.7735 114.735 85.7727 115.042 85.7721C115.138 85.7713 115.234 85.7706 115.333 85.7699C115.563 85.7699 115.793 85.777 116.022 85.7856C116.242 86.0054 116.184 86.2348 116.187 86.5377C116.189 86.6488 116.19 86.7599 116.193 86.8743C116.161 87.1688 116.161 87.1688 115.884 87.4454C115.46 87.4768 115.46 87.4768 114.92 87.4724C114.825 87.4721 114.731 87.4717 114.633 87.4713C114.33 87.4697 114.028 87.4662 113.725 87.4627C113.52 87.4613 113.315 87.4601 113.109 87.4589C112.606 87.4559 112.103 87.4511 111.6 87.4454C111.609 88.494 111.622 89.5426 111.636 90.5911C111.641 90.9477 111.645 91.3043 111.648 91.6609C111.653 92.1739 111.66 92.6869 111.668 93.1998C111.668 93.3589 111.669 93.518 111.67 93.6819C111.688 94.7717 111.688 94.7717 112.153 95.7447C112.864 96.2784 113.651 96.2366 114.502 96.1597C114.786 96.0968 114.786 96.0968 115.038 96.0127C115.489 95.8772 115.72 95.8655 116.161 96.0214C116.363 96.4261 116.36 96.6793 116.299 97.1279C115.642 97.8333 115.009 98.0556 114.064 98.1313C112.518 98.1837 111.353 97.8881 110.171 96.8751C109.523 96.0253 109.467 95.1242 109.48 94.0981C109.48 93.9657 109.48 93.8334 109.48 93.697C109.48 93.2629 109.483 92.8288 109.487 92.3948C109.487 92.0924 109.488 91.7901 109.488 91.4877C109.49 90.6946 109.494 89.9014 109.499 89.1083C109.503 88.2979 109.505 87.4875 109.507 86.6771C109.511 85.0889 109.518 83.5007 109.527 81.9126C109.909 81.7853 110.167 81.7476 110.564 81.7397Z" fill="#7E1D02"/>
<path d="M43.7263 85.3273C43.8457 85.3221 43.9651 85.3169 44.088 85.3116C44.566 85.3928 44.6965 85.5365 44.9874 85.9238C45.0391 86.3226 45.0575 86.6677 45.0502 87.0659C45.0503 87.1807 45.0503 87.2954 45.0504 87.4136C45.05 87.7924 45.0457 88.171 45.0414 88.5497C45.0404 88.8126 45.0396 89.0754 45.039 89.3382C45.0369 90.0295 45.0315 90.7208 45.0254 91.412C45.0197 92.1176 45.0172 92.8232 45.0144 93.5288C45.0085 94.9129 44.9991 96.297 44.9874 97.6811C44.6117 97.8065 44.3498 97.8502 43.9596 97.8627C43.8543 97.8679 43.749 97.873 43.6405 97.8784C43.1888 97.793 43.0535 97.6322 42.7762 97.2662C42.7245 96.8674 42.7061 96.5223 42.7135 96.1241C42.7133 95.9519 42.7133 95.9519 42.7132 95.7763C42.7136 95.3976 42.7179 95.019 42.7222 94.6402C42.7233 94.3774 42.7241 94.1146 42.7246 93.8518C42.7267 93.1605 42.7321 92.4692 42.7383 91.7779C42.7439 91.0724 42.7464 90.3668 42.7492 89.6612C42.7552 88.277 42.7646 86.8929 42.7762 85.5088C43.112 85.3408 43.3517 85.3379 43.7263 85.3273Z" fill="#7E1D02"/>
<path d="M22.5609 85.2656C22.6815 85.2621 22.8021 85.2585 22.9263 85.2548C23.3708 85.3122 23.5226 85.3867 23.8306 85.7152C23.884 86.1119 23.9019 86.4554 23.8955 86.8521C23.8958 86.9679 23.8961 87.0838 23.8964 87.2032C23.8968 87.5865 23.8931 87.9697 23.8894 88.353C23.8887 88.6188 23.8883 88.8846 23.888 89.1504C23.887 89.7073 23.8841 90.2643 23.8799 90.8213C23.8744 91.5368 23.8719 92.2524 23.8706 92.968C23.8692 93.6486 23.8664 94.3292 23.8635 95.0097C23.863 95.1405 23.8626 95.2712 23.8621 95.4059C23.8605 95.7738 23.8579 96.1418 23.855 96.5097C23.8547 96.6198 23.8543 96.7299 23.8539 96.8433C23.8465 97.595 23.8465 97.595 23.6924 97.7492C23.4454 97.7701 23.1974 97.7798 22.9495 97.7837C22.8145 97.7873 22.6795 97.7909 22.5403 97.7946C22.1722 97.7492 22.1722 97.7492 21.9449 97.6099C21.6481 97.1731 21.7024 96.7074 21.7083 96.1973C21.708 96.0814 21.7077 95.9656 21.7074 95.8462C21.707 95.4629 21.7096 95.0797 21.7122 94.6964C21.7126 94.4306 21.7129 94.1648 21.713 93.899C21.7136 93.342 21.7156 92.7851 21.7187 92.2281C21.7226 91.5125 21.7241 90.797 21.7247 90.0814C21.7253 89.5327 21.7267 88.984 21.7283 88.4354C21.7291 88.1714 21.7298 87.9075 21.7303 87.6435C21.7312 87.2755 21.7331 86.9076 21.7353 86.5396C21.7354 86.4295 21.7356 86.3195 21.7358 86.206C21.7431 85.28 21.7431 85.28 22.5609 85.2656Z" fill="#7E1D02"/>
<path d="M61.2347 87.1082C62.0647 87.6229 62.5646 88.3366 62.8921 89.2447C62.9653 89.5728 62.964 89.8767 62.9536 90.2118C61.402 90.5206 59.8412 90.7341 58.2721 90.9294C58.1722 90.9419 58.0724 90.9544 57.9695 90.9672C56.2627 91.1801 56.2627 91.1801 55.7672 91.1801C55.6894 89.9742 55.9411 88.9968 56.6827 88.0246C57.8363 86.8156 59.6813 86.4218 61.2347 87.1082Z" fill="white"/>
<path d="M88.2841 87.2514C88.92 87.7731 89.5748 88.4214 89.7644 89.2436C89.7675 89.5663 89.7678 89.8891 89.7644 90.2118C88.2379 90.5115 86.7028 90.7302 85.1606 90.9294C85.0646 90.9419 84.9687 90.9544 84.8698 90.9672C83.2298 91.1801 83.2298 91.1801 82.5779 91.1801C82.4669 90.0243 82.8213 88.9995 83.527 88.0759C84.7201 86.8143 86.701 86.2793 88.2841 87.2514Z" fill="white"/>
<path d="M63.9207 40.1394C64.3477 40.3236 64.561 40.4968 64.8277 40.8742C65.355 41.5261 66.0575 41.7801 66.823 42.0759C66.711 42.3037 66.5986 42.5313 66.4861 42.7589C66.4236 42.8856 66.361 43.0124 66.2966 43.143C66.1319 43.4591 66.1319 43.4591 65.9937 43.5974C65.9612 43.9225 65.9366 44.2483 65.916 44.5743C65.9044 44.7528 65.8929 44.9313 65.8809 45.1152C65.8684 45.3225 65.8684 45.3225 65.8555 45.5339C65.7602 45.5124 65.6649 45.4908 65.5667 45.4686C64.6945 45.2877 63.9667 45.2394 63.0915 45.3956C62.9428 45.4204 62.794 45.4452 62.6408 45.4707C62.5159 45.4916 62.391 45.5124 62.2623 45.5339C62.262 45.4102 62.2616 45.2864 62.2612 45.159C62.2229 43.959 62.019 43.1761 61.2949 42.2142C61.6435 41.938 61.9654 41.7368 62.3746 41.5658C63.0529 41.241 63.4662 40.7252 63.9207 40.1394Z" fill="#7E1D02"/>
<path d="M64.75 53.5565C66.8479 53.5565 68.9458 53.5565 71.1072 53.5565C71.7982 54.8014 71.7982 54.8014 71.7982 55.0781C69.6547 55.0781 67.5112 55.0781 65.3028 55.0781C64.75 53.9715 64.75 53.9715 64.75 53.5565Z" fill="#7E1D02"/>
<path d="M57.6415 53.478C57.9083 53.4782 58.1752 53.4821 58.442 53.489C58.5825 53.49 58.723 53.491 58.8678 53.492C59.3171 53.4959 59.7661 53.5045 60.2154 53.5133C60.5197 53.5168 60.8241 53.52 61.1285 53.5228C61.8751 53.5304 62.6216 53.542 63.3681 53.5566C63.2779 54.1702 63.1131 54.4818 62.8153 55.0781C60.6718 55.0781 58.5283 55.0781 56.3198 55.0781C56.8374 53.5241 56.8374 53.5241 57.6415 53.478Z" fill="#7E1D02"/>
<path d="M70.2782 46.0872C70.4216 46.3482 70.5621 46.6107 70.7014 46.8739C70.78 47.02 70.8585 47.166 70.9395 47.3165C71.1232 47.7878 71.1598 47.9738 70.9692 48.4387C70.7165 48.6705 70.7165 48.6705 70.3818 48.8969C69.3973 49.6342 68.6937 50.6028 67.9492 51.5728C67.8707 51.6647 67.8707 51.6647 67.7905 51.7584C67.7449 51.7584 67.6993 51.7584 67.6523 51.7584C67.7754 49.5082 67.9919 47.8967 69.6406 46.2504C69.8636 46.0872 69.8636 46.0872 70.2782 46.0872Z" fill="#7E1D02"/>
<path d="M57.8399 46.0872C58.556 46.2171 58.9175 46.6398 59.3602 47.1938C60.2868 48.6029 60.4911 50.0992 60.4658 51.7584C60.0245 51.3311 59.6233 50.8925 59.2364 50.4156C58.5686 49.5932 57.8932 48.9001 57.0107 48.3004C57.0765 47.4666 57.4526 46.8111 57.8399 46.0872Z" fill="#7E1D02"/>
<path d="M72.4894 44.1507C72.5807 44.1507 72.6719 44.1507 72.7658 44.1507C72.9334 44.3591 73.1008 44.5677 73.2668 44.7774C73.5235 45.0519 73.7908 45.1551 74.1479 45.2572C74.0269 45.9316 74.0269 45.9316 73.8715 46.0872C73.8394 46.2967 73.8145 46.5073 73.7937 46.7183C73.7738 46.9208 73.7538 47.1234 73.7333 47.3321C73.0036 47.3321 72.2739 47.3321 71.522 47.3321C71.4821 47.1181 71.4422 46.9041 71.4011 46.6837C71.3015 46.1816 71.1866 45.7235 70.9692 45.2572C71.0442 45.2237 71.1192 45.1902 71.1965 45.1557C71.7664 44.8885 72.1409 44.6933 72.4894 44.1507Z" fill="#7E1D02"/>
<path d="M55.3525 44.1507C55.7671 44.289 55.7671 44.289 56.0953 44.6261C56.4476 44.9704 56.6864 45.1117 57.1491 45.2572C57.0892 45.3856 57.0892 45.3856 57.0281 45.5166C56.8139 46.1123 56.7123 46.7097 56.5963 47.3321C55.8666 47.3321 55.1369 47.3321 54.3851 47.3321C54.3581 47.0214 54.3311 46.7107 54.3041 46.4C54.2613 46.0495 54.2613 46.0495 53.9705 45.6722C53.9705 45.5353 53.9705 45.3983 53.9705 45.2572C54.0959 45.203 54.2213 45.1488 54.3505 45.093C54.8192 44.8314 55.0471 44.5856 55.3525 44.1507Z" fill="#7E1D02"/>
<path d="M44.2963 80.2527C44.842 80.5928 45.0797 80.8043 45.281 81.4198C45.2598 82.0238 45.0934 82.2831 44.7109 82.7425C44.2317 82.9823 43.7147 82.9443 43.1907 82.8808C42.791 82.6508 42.6823 82.4753 42.551 82.0379C42.4888 81.7014 42.4621 81.4231 42.4997 81.0826C43.0245 80.4013 43.4403 80.1538 44.2963 80.2527Z" fill="#7E1D02"/>
<path d="M23.1396 80.1823C23.9107 80.6191 23.9107 80.6191 24.107 81.0122C24.1651 82.0581 24.1651 82.0581 23.8306 82.5338C23.273 82.9058 22.827 82.9183 22.1722 82.8104C21.7288 82.5296 21.5325 82.3369 21.4111 81.82C21.3763 81.3664 21.3798 81.024 21.6394 80.6399C22.1154 80.1987 22.5111 80.0643 23.1396 80.1823Z" fill="#7E1D02"/>
<path d="M60.4659 45.2573C61.0283 45.445 61.1627 45.8093 61.4333 46.3034C61.4824 46.3917 61.5315 46.4799 61.582 46.5709C62.368 48.007 62.5637 49.3065 62.5475 50.9285C62.5469 51.0489 62.5463 51.1692 62.5456 51.2932C62.544 51.5866 62.5415 51.88 62.5389 52.1734C62.3109 52.1734 62.0828 52.1734 61.8479 52.1734C61.8443 51.9946 61.8408 51.8157 61.8371 51.6315C61.7764 49.5242 61.3993 47.9229 60.3277 46.0873C60.2339 45.9036 60.1412 45.7195 60.0513 45.534C60.1881 45.4427 60.3249 45.3514 60.4659 45.2573Z" fill="#7E1D02"/>
<path d="M67.3758 45.2573C67.5582 45.3486 67.7406 45.4399 67.9286 45.534C67.8444 45.9186 67.7288 46.239 67.5447 46.5865C67.4966 46.6796 67.4484 46.7727 67.3987 46.8686C67.298 47.0604 67.1969 47.2521 67.0953 47.4435C66.5133 48.5721 66.366 49.5975 66.322 50.8594C66.3166 50.9863 66.3113 51.1133 66.3058 51.2441C66.2929 51.5538 66.281 51.8636 66.2702 52.1734C66.0421 52.1734 65.8141 52.1734 65.5792 52.1734C65.5313 49.6049 65.6813 47.336 67.3758 45.2573Z" fill="#7E1D02"/>
<path d="M63.6445 47.3321C63.9182 47.3321 64.1918 47.3321 64.4737 47.3321C64.4737 48.9297 64.4737 50.5274 64.4737 52.1734C64.2001 52.1734 63.9265 52.1734 63.6445 52.1734C63.6445 50.5758 63.6445 48.9782 63.6445 47.3321Z" fill="#7E1D02"/>
<path d="M53.9703 50.9284C54.2439 50.9284 54.5176 50.9284 54.7995 50.9284C54.7995 51.2023 54.7995 51.4762 54.7995 51.7584C55.0275 51.7584 55.2556 51.7584 55.4905 51.7584C55.4905 52.0322 55.4905 52.3061 55.4905 52.5883C55.2625 52.5883 55.0344 52.5883 54.7995 52.5883C54.7995 52.8165 54.7995 53.0448 54.7995 53.2799C54.5259 53.2799 54.2522 53.2799 53.9703 53.2799C53.9703 53.0517 53.9703 52.8234 53.9703 52.5883C53.7423 52.5883 53.5142 52.5883 53.2793 52.5883C53.2793 52.3144 53.2793 52.0405 53.2793 51.7584C53.5073 51.7584 53.7354 51.7584 53.9703 51.7584C53.9703 51.4845 53.9703 51.2106 53.9703 50.9284Z" fill="#F6AF9C"/>
<path d="M53.9703 40.1394C54.2439 40.1394 54.5176 40.1394 54.7995 40.1394C54.7995 40.4133 54.7995 40.6871 54.7995 40.9693C55.0275 40.9693 55.2556 40.9693 55.4905 40.9693C55.4905 41.2432 55.4905 41.5171 55.4905 41.7993C55.2625 41.7993 55.0344 41.7993 54.7995 41.7993C54.7995 42.0275 54.7995 42.2557 54.7995 42.4909C54.5259 42.4909 54.2522 42.4909 53.9703 42.4909C53.9703 42.2626 53.9703 42.0344 53.9703 41.7993C53.7423 41.7993 53.5142 41.7993 53.2793 41.7993C53.2793 41.5254 53.2793 41.2515 53.2793 40.9693C53.5073 40.9693 53.7354 40.9693 53.9703 40.9693C53.9703 40.6954 53.9703 40.4216 53.9703 40.1394Z" fill="#F98C6D"/>
<path d="M73.3184 49.5452C73.5921 49.5452 73.8657 49.5452 74.1476 49.5452C74.1476 49.7735 74.1476 50.0017 74.1476 50.2369C74.3757 50.2369 74.6037 50.2369 74.8387 50.2369C74.8387 50.5107 74.8387 50.7846 74.8387 51.0668C74.6106 51.0668 74.3826 51.0668 74.1476 51.0668C74.1476 51.295 74.1476 51.5232 74.1476 51.7584C73.874 51.7584 73.6004 51.7584 73.3184 51.7584C73.3184 51.5302 73.3184 51.3019 73.3184 51.0668C73.0904 51.0668 72.8624 51.0668 72.6274 51.0668C72.6274 50.7929 72.6274 50.519 72.6274 50.2369C72.8555 50.2369 73.0835 50.2369 73.3184 50.2369C73.3184 50.0086 73.3184 49.7804 73.3184 49.5452Z" fill="#F5B9A9"/>
<path d="M72.9039 40.2777C73.1775 40.2777 73.4512 40.2777 73.7331 40.2777C73.7331 40.5059 73.7331 40.7342 73.7331 40.9693C73.9611 40.9693 74.1892 40.9693 74.4241 40.9693C74.4241 41.2432 74.4241 41.5171 74.4241 41.7992C74.1961 41.7992 73.968 41.7992 73.7331 41.7992C73.7331 42.0275 73.7331 42.2557 73.7331 42.4909C73.4595 42.4909 73.1858 42.4909 72.9039 42.4909C72.9039 42.2626 72.9039 42.0344 72.9039 41.7992C72.6759 41.7992 72.4478 41.7992 72.2129 41.7992C72.2129 41.5254 72.2129 41.2515 72.2129 40.9693C72.4409 40.9693 72.669 40.9693 72.9039 40.9693C72.9039 40.7411 72.9039 40.5129 72.9039 40.2777Z" fill="#F7A893"/>
<path d="M58.531 60.3343C59.2607 60.3343 59.9904 60.3343 60.7422 60.3343C60.7422 60.5625 60.7422 60.7908 60.7422 61.0259C60.0125 61.0259 59.2828 61.0259 58.531 61.0259C58.531 60.7977 58.531 60.5694 58.531 60.3343Z" fill="#F2EFEF"/>
<path d="M58.531 58.8128C59.2607 58.8128 59.9904 58.8128 60.7422 58.8128C60.7422 59.041 60.7422 59.2692 60.7422 59.5044C60.0125 59.5044 59.2828 59.5044 58.531 59.5044C58.531 59.2762 58.531 59.0479 58.531 58.8128Z" fill="#F2EBE9"/>
<path d="M53.9705 52.5884C54.2441 52.5884 54.5177 52.5884 54.7997 52.5884C54.7997 52.8166 54.7997 53.0448 54.7997 53.28C54.526 53.28 54.2524 53.28 53.9705 53.28C53.9705 53.0517 53.9705 52.8235 53.9705 52.5884Z" fill="#FB6A41"/>
<path d="M72.6274 50.2368C72.8555 50.2368 73.0835 50.2368 73.3184 50.2368C73.3184 50.5107 73.3184 50.7846 73.3184 51.0668C73.0904 51.0668 72.8624 51.0668 72.6274 51.0668C72.6274 50.7929 72.6274 50.519 72.6274 50.2368Z" fill="#7E1D02"/>
<path d="M63.6445 45.8106C63.9182 45.8106 64.1918 45.8106 64.4737 45.8106C64.4737 46.0388 64.4737 46.2671 64.4737 46.5022C64.2001 46.5022 63.9265 46.5022 63.6445 46.5022C63.6445 46.274 63.6445 46.0457 63.6445 45.8106Z" fill="#7E1D02"/>
<path d="M61.4331 60.3343C61.6611 60.3343 61.8892 60.3343 62.1241 60.3343C62.1241 60.5625 62.1241 60.7908 62.1241 61.0259C61.8961 61.0259 61.668 61.0259 61.4331 61.0259C61.4331 60.7977 61.4331 60.5694 61.4331 60.3343Z" fill="#F2ECEA"/>
<path d="M54.7996 51.7584C55.0276 51.7584 55.2556 51.7584 55.4906 51.7584C55.4906 51.9866 55.4906 52.2148 55.4906 52.45C55.2625 52.45 55.0345 52.45 54.7996 52.45C54.7996 52.2217 54.7996 51.9935 54.7996 51.7584Z" fill="#7E1D02"/>
<path d="M53.2793 51.7584C53.5073 51.7584 53.7354 51.7584 53.9703 51.7584C53.9703 51.9866 53.9703 52.2148 53.9703 52.45C53.7423 52.45 53.5142 52.45 53.2793 52.45C53.2793 52.2217 53.2793 51.9935 53.2793 51.7584Z" fill="#FC5728"/>
<path d="M73.3186 51.0668C73.5466 51.0668 73.7747 51.0668 74.0096 51.0668C74.0096 51.295 74.0096 51.5232 74.0096 51.7584C73.7816 51.7584 73.5535 51.7584 73.3186 51.7584C73.3186 51.5301 73.3186 51.3019 73.3186 51.0668Z" fill="#7E1D02"/>
<path d="M54.1086 51.0668C54.3367 51.0668 54.5647 51.0668 54.7996 51.0668C54.7996 51.295 54.7996 51.5232 54.7996 51.7584C54.5716 51.7584 54.3436 51.7584 54.1086 51.7584C54.1086 51.5301 54.1086 51.3019 54.1086 51.0668Z" fill="#7E1D02"/>
<path d="M73.3186 49.5452C73.5466 49.5452 73.7747 49.5452 74.0096 49.5452C74.0096 49.7735 74.0096 50.0017 74.0096 50.2369C73.7816 50.2369 73.5535 50.2369 73.3186 50.2369C73.3186 50.0086 73.3186 49.7804 73.3186 49.5452Z" fill="#7E1D02"/>
<path d="M68.2051 44.0123C68.4331 44.0123 68.6611 44.0123 68.8961 44.0123C68.8961 44.2406 68.8961 44.4688 68.8961 44.704C68.668 44.704 68.44 44.704 68.2051 44.704C68.2051 44.4757 68.2051 44.2475 68.2051 44.0123Z" fill="#7E1D02"/>
<path d="M59.2219 44.0123C59.45 44.0123 59.678 44.0123 59.9129 44.0123C59.9129 44.2406 59.9129 44.4688 59.9129 44.704C59.6849 44.704 59.4569 44.704 59.2219 44.704C59.2219 44.4757 59.2219 44.2475 59.2219 44.0123Z" fill="#7E1D02"/>
<path d="M69.3105 42.4908C69.5386 42.4908 69.7666 42.4908 70.0015 42.4908C70.0015 42.7191 70.0015 42.9473 70.0015 43.1824C69.7735 43.1824 69.5455 43.1824 69.3105 43.1824C69.3105 42.9542 69.3105 42.726 69.3105 42.4908Z" fill="#7E1D02"/>
<path d="M58.1165 42.4908C58.3445 42.4908 58.5725 42.4908 58.8075 42.4908C58.8075 42.7191 58.8075 42.9473 58.8075 43.1824C58.5794 43.1824 58.3514 43.1824 58.1165 43.1824C58.1165 42.9542 58.1165 42.726 58.1165 42.4908Z" fill="#7E1D02"/>
<path d="M73.042 41.7992C73.27 41.7992 73.4981 41.7992 73.733 41.7992C73.733 42.0275 73.733 42.2557 73.733 42.4908C73.505 42.4908 73.2769 42.4908 73.042 42.4908C73.042 42.2626 73.042 42.0344 73.042 41.7992Z" fill="#7E1D02"/>
<path d="M73.7329 40.9693C73.9609 40.9693 74.189 40.9693 74.4239 40.9693C74.4239 41.1975 74.4239 41.4258 74.4239 41.6609C74.1959 41.6609 73.9679 41.6609 73.7329 41.6609C73.7329 41.4327 73.7329 41.2045 73.7329 40.9693Z" fill="#7E1D02"/>
<path d="M73.042 40.9693C73.27 40.9693 73.4981 40.9693 73.733 40.9693C73.733 41.1975 73.733 41.4258 73.733 41.6609C73.505 41.6609 73.2769 41.6609 73.042 41.6609C73.042 41.4327 73.042 41.2045 73.042 40.9693Z" fill="#F2F0EF"/>
<path d="M72.2129 40.9693C72.4409 40.9693 72.669 40.9693 72.9039 40.9693C72.9039 41.1975 72.9039 41.4258 72.9039 41.6609C72.6759 41.6609 72.4478 41.6609 72.2129 41.6609C72.2129 41.4327 72.2129 41.2045 72.2129 40.9693Z" fill="#FC5B2D"/>
<path d="M54.7996 40.9693C55.0276 40.9693 55.2556 40.9693 55.4906 40.9693C55.4906 41.1975 55.4906 41.4258 55.4906 41.6609C55.2625 41.6609 55.0345 41.6609 54.7996 41.6609C54.7996 41.4327 54.7996 41.2045 54.7996 40.9693Z" fill="#7E1D02"/>
<path d="M54.1086 40.9693C54.3367 40.9693 54.5647 40.9693 54.7996 40.9693C54.7996 41.1975 54.7996 41.4258 54.7996 41.6609C54.5716 41.6609 54.3436 41.6609 54.1086 41.6609C54.1086 41.4327 54.1086 41.2045 54.1086 40.9693Z" fill="#F2E9E6"/>
<path d="M53.2793 40.9693C53.5073 40.9693 53.7354 40.9693 53.9703 40.9693C53.9703 41.1975 53.9703 41.4258 53.9703 41.6609C53.7423 41.6609 53.5142 41.6609 53.2793 41.6609C53.2793 41.4327 53.2793 41.2045 53.2793 40.9693Z" fill="#7E1D02"/>
<path d="M73.042 40.2777C73.27 40.2777 73.4981 40.2777 73.733 40.2777C73.733 40.5059 73.733 40.7342 73.733 40.9693C73.505 40.9693 73.2769 40.9693 73.042 40.9693C73.042 40.7411 73.042 40.5129 73.042 40.2777Z" fill="#7E1D02"/>
<path d="M54.1086 40.2777C54.3367 40.2777 54.5647 40.2777 54.7996 40.2777C54.7996 40.5059 54.7996 40.7342 54.7996 40.9693C54.5716 40.9693 54.3436 40.9693 54.1086 40.9693C54.1086 40.7411 54.1086 40.5129 54.1086 40.2777Z" fill="#7E1D02"/>
<path d="M54.1086 51.7584C54.2911 51.7584 54.4735 51.7584 54.6614 51.7584C54.6614 51.9866 54.6614 52.2148 54.6614 52.45C54.479 52.45 54.2966 52.45 54.1086 52.45C54.1086 52.2217 54.1086 51.9935 54.1086 51.7584Z" fill="#F2F0F0"/>
<path d="M74.1477 50.3752C74.3757 50.3752 74.6038 50.3752 74.8387 50.3752C74.8387 50.5577 74.8387 50.7403 74.8387 50.9284C74.6107 50.9284 74.3826 50.9284 74.1477 50.9284C74.1477 50.7459 74.1477 50.5633 74.1477 50.3752Z" fill="#7E1D02"/>
</svg>
